<mxfile host="app.diagrams.net" agent="Mozilla/5.0 (Macintosh; Intel Mac OS X 10_15_7) AppleWebKit/605.1.15 (KHTML, like Gecko) Version/18.3.1 Safari/605.1.15" version="27.2.0">
  <diagram name="Page-1" id="r1k38zDD78-mlQIpZ2-p">
    <mxGraphModel dx="946" dy="652" grid="1" gridSize="10" guides="1" tooltips="1" connect="1" arrows="1" fold="1" page="1" pageScale="1" pageWidth="850" pageHeight="1100" math="0" shadow="0">
      <root>
        <mxCell id="0" />
        <mxCell id="1" parent="0" />
        <mxCell id="foEKtQcUHAYvUiWVAj89-7" value="" style="rounded=1;whiteSpace=wrap;html=1;" vertex="1" parent="1">
          <mxGeometry x="510" y="70" width="210" height="340" as="geometry" />
        </mxCell>
        <mxCell id="foEKtQcUHAYvUiWVAj89-1" value="&lt;b&gt;systemd&lt;/b&gt;" style="rounded=1;whiteSpace=wrap;html=1;" vertex="1" parent="1">
          <mxGeometry x="120" y="140" width="210" height="200" as="geometry" />
        </mxCell>
        <mxCell id="foEKtQcUHAYvUiWVAj89-2" value="" style="endArrow=classic;html=1;rounded=0;exitX=0.5;exitY=1;exitDx=0;exitDy=0;" edge="1" parent="1" source="foEKtQcUHAYvUiWVAj89-1">
          <mxGeometry width="50" height="50" relative="1" as="geometry">
            <mxPoint x="180" y="490" as="sourcePoint" />
            <mxPoint x="140" y="440" as="targetPoint" />
          </mxGeometry>
        </mxCell>
        <mxCell id="foEKtQcUHAYvUiWVAj89-3" value="service" style="ellipse;whiteSpace=wrap;html=1;" vertex="1" parent="1">
          <mxGeometry x="80" y="440" width="120" height="80" as="geometry" />
        </mxCell>
        <mxCell id="foEKtQcUHAYvUiWVAj89-4" value="service" style="ellipse;whiteSpace=wrap;html=1;" vertex="1" parent="1">
          <mxGeometry x="150" y="480" width="120" height="80" as="geometry" />
        </mxCell>
        <mxCell id="foEKtQcUHAYvUiWVAj89-5" value="service" style="ellipse;whiteSpace=wrap;html=1;" vertex="1" parent="1">
          <mxGeometry x="70" y="520" width="120" height="80" as="geometry" />
        </mxCell>
        <mxCell id="foEKtQcUHAYvUiWVAj89-6" value="Raku / Sparrow" style="rounded=1;whiteSpace=wrap;html=1;" vertex="1" parent="1">
          <mxGeometry x="550" y="170" width="120" height="60" as="geometry" />
        </mxCell>
        <mxCell id="foEKtQcUHAYvUiWVAj89-8" value="&lt;b&gt;audit loop&lt;/b&gt;" style="text;html=1;align=center;verticalAlign=middle;whiteSpace=wrap;rounded=0;" vertex="1" parent="1">
          <mxGeometry x="580" y="80" width="60" height="30" as="geometry" />
        </mxCell>
        <mxCell id="foEKtQcUHAYvUiWVAj89-10" value="" style="endArrow=classic;html=1;rounded=0;" edge="1" parent="1">
          <mxGeometry width="50" height="50" relative="1" as="geometry">
            <mxPoint x="498" y="220" as="sourcePoint" />
            <mxPoint x="338" y="220" as="targetPoint" />
          </mxGeometry>
        </mxCell>
        <mxCell id="foEKtQcUHAYvUiWVAj89-11" value="&lt;b&gt;converge&lt;/b&gt;" style="text;html=1;align=center;verticalAlign=middle;whiteSpace=wrap;rounded=0;" vertex="1" parent="1">
          <mxGeometry x="390" y="180" width="60" height="30" as="geometry" />
        </mxCell>
      </root>
    </mxGraphModel>
  </diagram>
</mxfile>
